<svg width="1024" height="1024" viewBox="0 0 1024 1024" fill="none" xmlns="http://www.w3.org/2000/svg">
<path d="M919.241 673.152C919.241 673.152 917.888 664.852 917.097 664.927L766.485 679.458C754.501 680.616 745.193 690.173 744.353 702.182L740.215 761.487L623.695 769.8L615.77 716.052C614.005 704.097 603.565 695.085 591.481 695.085H432.519C420.439 695.085 409.999 704.097 408.234 716.052L400.305 769.8L283.785 761.487L279.647 702.182C278.806 690.169 269.499 680.612 257.515 679.454L106.828 664.927C106.05 664.852 105.479 673.16 104.701 673.16L104.497 705.754L232.114 726.334L236.293 786.167C237.139 798.28 246.912 808.075 259.034 808.945L419.507 820.392C420.114 820.434 420.714 820.459 421.313 820.459C433.372 820.459 443.796 811.442 445.56 799.487L453.715 744.183H570.289L578.443 799.487C580.204 811.438 590.64 820.454 602.716 820.454C603.307 820.454 603.898 820.434 604.476 820.392L764.97 808.945C777.087 808.075 786.865 798.28 787.71 786.167L791.885 726.334L919.449 705.662L919.241 673.152Z" fill="white"/>
<path d="M104.699 427.387V625.17V650.291V673.152C105.148 673.156 105.598 673.173 106.043 673.214L256.713 687.742C264.606 688.504 270.791 694.856 271.341 702.765L275.986 769.275L407.417 778.653L416.47 717.267C417.644 709.308 424.471 703.41 432.521 703.41H591.483C599.529 703.41 606.356 709.308 607.53 717.267L616.584 778.653L748.018 769.275L752.659 702.765C753.213 694.856 759.394 688.508 767.287 687.742L917.898 673.214C918.344 673.173 918.789 673.156 919.239 673.152V653.542L919.301 653.521V427.387H919.859C939.819 401.912 958.288 375.067 976 346.429C952.477 306.384 923.655 270.598 892.848 237.443C864.276 251.825 836.523 268.117 810.311 285.455C797.195 272.417 782.422 261.753 767.911 250.605C753.654 239.154 737.586 230.758 722.347 220.976C726.884 187.188 729.128 153.925 730.031 119.208C690.711 99.4193 648.781 86.2988 606.368 76.8746C589.435 105.334 573.95 136.154 560.463 166.283C544.47 163.611 528.403 162.62 512.314 162.429V162.404C512.202 162.404 512.098 162.429 512.002 162.429C511.902 162.429 511.798 162.404 511.698 162.404V162.429C495.581 162.62 479.525 163.611 463.529 166.283C450.05 136.154 434.573 105.334 417.615 76.8746C375.223 86.2988 333.289 99.4193 293.973 119.208C294.872 153.925 297.116 187.188 301.665 220.976C286.397 230.758 270.35 239.154 256.089 250.605C241.599 261.753 226.801 272.417 213.68 285.455C187.468 268.117 159.724 251.825 131.144 237.443C100.337 270.598 71.5312 306.384 48 346.429C65.7036 375.067 84.1856 401.912 104.141 427.387H104.699Z" fill="#478CBF"/>
<path d="M784.071 718.723L779.405 785.587C778.843 793.646 772.433 800.061 764.374 800.639L603.884 812.091C603.493 812.12 603.102 812.132 602.715 812.132C594.739 812.132 587.858 806.28 586.68 798.271L577.477 735.856H446.525L437.322 798.271C436.085 806.671 428.576 812.711 420.118 812.091L259.628 800.639C251.569 800.061 245.159 793.646 244.597 785.587L239.931 718.723L104.45 705.661C104.513 720.222 104.7 736.173 104.7 739.349C104.7 882.435 286.211 951.209 511.724 952H511.999H512.278C737.792 951.209 919.24 882.435 919.24 739.349C919.24 736.115 919.435 720.23 919.502 705.661L784.071 718.723Z" fill="#478CBF"/>
<path d="M389.215 527.151C389.215 577.319 348.567 617.959 298.416 617.959C248.29 617.959 207.629 577.319 207.629 527.151C207.629 477.017 248.29 436.398 298.416 436.398C348.567 436.398 389.215 477.017 389.215 527.151Z" fill="white"/>
<path d="M367.367 532.537C367.367 565.813 340.397 592.783 307.096 592.783C273.812 592.783 246.826 565.813 246.826 532.537C246.826 499.261 273.812 472.267 307.096 472.267C340.397 472.267 367.367 499.261 367.367 532.537Z" fill="#414042"/>
<path d="M511.993 626.22C495.851 626.22 482.768 614.323 482.768 599.658V516.069C482.768 501.416 495.851 489.507 511.993 489.507C528.136 489.507 541.248 501.416 541.248 516.069V599.658C541.248 614.323 528.136 626.22 511.993 626.22Z" fill="white"/>
<path d="M666 775.12L736 229.4L737 230L739.5 231.5L742 233.03L744.5 234.55L746 235.47L747.5 236.4L748.5 237.04L750 237.99L751.5 238.95L754.5 240.9L756 241.9L759 243.95L760.5 245L764 247.57L766.5 249.49L767.075 249.938L772.387 254.03L775.247 256.199L776 256.77L777.058 257.584L779.57 259.5L781.5 260.98L783.5 262.51L785.5 264.07L786.681 264.99L787.2 265.4L789.25 267.02L790.479 268L793 270.03L724 771L666 775.12Z" fill="white"/>
<g clip-path="url(#clip0_1_2)">
<circle cx="731.5" cy="534.5" r="68.5" fill="white"/>
<path d="M638.654 464.301L624.539 489.777L641.959 509.418C640.272 518.472 638.585 527.526 638.171 537.286L616.689 552.021L624.641 579.735L650.668 580.837C654.92 588.187 660.445 596.243 668.656 602.457L664.301 628.346L689.777 642.461L709.418 625.041C718.472 626.728 727.526 628.415 736.013 628.123L750.747 649.605L780.441 641.085L781.543 615.058C788.893 610.806 795.675 604.575 802.457 598.344L828.346 602.699L842.462 577.223L825.042 557.582C826.729 548.528 828.415 539.474 828.829 529.714L850.311 514.979L842.359 487.265L816.332 486.163C812.08 478.813 806.555 470.757 798.344 464.543L802.699 438.654L777.223 424.538L757.582 441.958C748.528 440.271 739.474 438.585 729.714 438.171L714.979 416.689L687.265 424.641L686.163 450.668C678.813 454.92 670.757 460.445 664.543 468.656L638.654 464.301ZM761.731 482.548C789.754 498.075 799.979 533.707 784.452 561.731C768.925 589.754 733.293 599.979 705.269 584.452C677.246 568.925 667.021 533.293 682.548 505.269C698.075 477.246 733.707 467.021 761.731 482.548Z" fill="#444444"/>
<path d="M699.675 516.424C709.422 498.833 731.573 492.476 749.165 502.223C766.756 511.97 773.112 534.121 763.365 551.712C753.619 569.303 731.468 575.66 713.876 565.913C696.285 556.166 689.929 534.015 699.675 516.424Z" fill="#444444"/>
</g>
<defs>
<clipPath id="clip0_1_2">
<rect width="233" height="233" fill="white" transform="translate(778.943 691.865) rotate(-151.011)"/>
</clipPath>
</defs>
</svg>
